<?xml version="1.0" encoding="UTF-8" standalone="no"?>
<svg
   xmlns="http://www.w3.org/2000/svg"
   version="1.1"
   viewBox="0 0 408.79 408.79"
   style="background:#eeeeee">
  <path
     d="M 353.7,0 H 23.461323 C -6.9606769,0 -0.70942799,-6.3076955 -0.65393077,24.115254 L 0.005,385.33368 c 0.05429521,29.76402 -3.6711665,25.00248 26.750977,24.77418 L 202.37,408.79 202.621,262.71 H 164.67 c -4.932,0 -8.935,-3.988 -8.954,-8.92 l -0.182,-47.087 c -0.019,-4.959 3.996,-8.989 8.955,-8.989 h 37.882 v -45.498 c 0,-52.8 32.247,-81.55 79.348,-81.55 h 38.65 c 4.945,0 8.955,4.009 8.955,8.955 v 39.704 c 0,4.944 -4.007,8.952 -8.95,8.955 l -23.719,0.011 c -25.615,0 -30.575,12.172 -30.575,30.035 v 39.389 h 56.285 c 5.363,0 9.524,4.683 8.892,10.009 l -5.581,47.087 c -0.534,4.506 -4.355,7.901 -8.892,7.901 h -50.453 l -0.251,146.08 122.55433,1.97679 c 30.41804,0.49064 20.12051,-4.89412 20.16067,-26.74998 L 409.45393,25.436115 C 409.45293,-4.9868846 423.00892,1.3208615 366.88762,0.66193077 Z"
     fill="#3d9398"/>
</svg>
