<?xml version="1.0" encoding="UTF-8" standalone="no"?>
<svg
   xmlns:dc="http://purl.org/dc/elements/1.1/"
   xmlns:cc="http://creativecommons.org/ns#"
   xmlns:rdf="http://www.w3.org/1999/02/22-rdf-syntax-ns#"
   xmlns:svg="http://www.w3.org/2000/svg"
   xmlns="http://www.w3.org/2000/svg"
   xmlns:sodipodi="http://sodipodi.sourceforge.net/DTD/sodipodi-0.dtd"
   xmlns:inkscape="http://www.inkscape.org/namespaces/inkscape"
   width="24px"
   height="24px"
   viewBox="0 0 20 20"
   style="background:#eeeeee"
   version="1.1"
   id="svg845"
   sodipodi:docname="github.svg"
   inkscape:version="1.0.2 (e86c8708, 2021-01-15)">
  <metadata
     id="metadata851">
    <rdf:RDF>
      <cc:Work
         rdf:about="">
        <dc:format>image/svg+xml</dc:format>
        <dc:type
           rdf:resource="http://purl.org/dc/dcmitype/StillImage" />
      </cc:Work>
    </rdf:RDF>
  </metadata>
  <defs
     id="defs849" />
  <sodipodi:namedview
     pagecolor="#ffffff"
     bordercolor="#666666"
     borderopacity="1"
     objecttolerance="10"
     gridtolerance="10"
     guidetolerance="10"
     inkscape:pageopacity="0"
     inkscape:pageshadow="2"
     inkscape:window-width="1207"
     inkscape:window-height="712"
     id="namedview847"
     showgrid="false"
     inkscape:zoom="22.429961"
     inkscape:cx="12"
     inkscape:cy="12"
     inkscape:window-x="550"
     inkscape:window-y="493"
     inkscape:window-maximized="0"
     inkscape:current-layer="svg845" />
  <path
     fill="#3d9398"
     d="M 19.510596,0.69032044 C 18.777596,-0.04267956 17.265,0 16.233,0 H 3.746 C 2.714,0 1.1632516,-0.26559569 0.43025163,0.46740431 -0.30274837,1.2004043 0,0.74490757 0,3.746 v 12.487 c 0,1.032 -0.19129031,2.508443 0.54170969,3.241443 C 1.2747097,20.207443 2.714,19.979 3.746,19.979 H 6.66 c 0.19,0 0.333,-0.007 0.429,-0.02 0.1116928,-0.02239 0.2125051,-0.08196 0.286,-0.169 0.095,-0.1 0.143,-0.245 0.143,-0.435 L 7.511,18.47 C 7.507,17.906 7.505,17.46 7.505,17.13 l -0.3,0.052 c -0.19,0.035 -0.43,0.05 -0.721,0.046 C 6.1806874,17.222402 5.878343,17.191967 5.58,17.137 5.2624032,17.078361 4.9634269,16.944645 4.708,16.747 4.4404932,16.544631 4.2409726,16.265581 4.136,15.947 l -0.13,-0.3 C 3.8964284,15.410351 3.7587717,15.18775 3.596,14.984 3.41,14.741 3.221,14.577 3.03,14.49 L 2.94,14.425 c -0.062757,-0.04495 -0.1198392,-0.09733 -0.17,-0.156 -0.047908,-0.05446 -0.08735,-0.115808 -0.117,-0.182 -0.026,-0.061 -0.004,-0.111 0.065,-0.15 0.07,-0.04 0.195,-0.059 0.378,-0.059 l 0.26,0.04 c 0.173,0.034 0.388,0.138 0.643,0.311 0.2580605,0.175935 0.4736279,0.407218 0.631,0.677 0.2,0.355 0.44,0.626 0.722,0.813 0.282,0.186 0.566,0.28 0.852,0.28 0.286,0 0.533,-0.022 0.742,-0.065 0.2021128,-0.04179 0.3985058,-0.107592 0.585,-0.196 0.078,-0.58 0.29,-1.028 0.637,-1.34 C 7.7183752,14.353919 7.2727558,14.275693 6.835,14.164 6.4077927,14.046642 5.9969382,13.876321 5.612,13.657 5.2092446,13.43773 4.8535046,13.14145 4.565,12.785 4.288,12.438 4.06,11.983 3.882,11.42 3.705,10.856 3.616,10.205 3.616,9.468 3.616,8.419 3.958,7.526 4.643,6.788 4.323,6 4.353,5.115 4.734,4.136 4.986,4.057 5.359,4.116 5.853,4.311 c 0.494,0.195 0.856,0.362 1.086,0.5 0.23,0.14 0.414,0.257 0.553,0.352 0.8129762,-0.2262467 1.6531315,-0.3399722 2.497,-0.338 0.859,0 1.691,0.113 2.498,0.338 l 0.494,-0.312 c 0.379983,-0.2281474 0.780784,-0.4196747 1.197,-0.572 0.46,-0.174 0.81,-0.221 1.054,-0.143 0.39,0.98 0.424,1.864 0.103,2.653 0.685,0.737 1.028,1.63 1.028,2.68 0,0.737 -0.089,1.39 -0.267,1.957 -0.177,0.568 -0.407,1.023 -0.689,1.366 -0.282,0.343 -0.633,0.63 -1.053,0.865 -0.42,0.234 -0.828,0.403 -1.223,0.507 -0.437724,0.112057 -0.883346,0.190617 -1.333,0.235 0.45,0.39 0.676,1.005 0.676,1.846 v 3.11 c 0,0.147 0.021,0.266 0.065,0.357 0.04086,0.08858 0.115923,0.156783 0.208,0.189 0.096,0.034 0.18,0.056 0.254,0.064 0.074,0.01 0.18,0.013 0.318,0.013 h 2.914 c 1.032,0 2.434138,0.116985 3.167138,-0.616015 C 20.132138,18.629985 19.979,17.264 19.979,16.232 V 3.746 c 0,-1.032 0.264596,-2.3226796 -0.468404,-3.05567956 z"
     id="path843"
     sodipodi:nodetypes="cssssssssccccccccccccccccccccccscccccccsccsccccccccscscccsscccssssscc" />
</svg>
